<svg width="40" height="40" viewBox="0 0 40 40" fill="none" xmlns="http://www.w3.org/2000/svg">
<path fill-rule="evenodd" clip-rule="evenodd" d="M5.63 8.47004C5 9.36671 5 12.0334 5 17.3617V19.985C5 29.3817 12.065 33.9434 16.4983 35.8784C17.7 36.4034 18.3017 36.6667 20 36.6667C21.7 36.6667 22.3 36.4034 23.5017 35.8784C27.935 33.9417 35 29.3834 35 19.985V17.3617C35 12.0317 35 9.36671 34.37 8.47004C33.7417 7.57504 31.2367 6.71671 26.225 5.00171L25.27 4.67504C22.6583 3.78004 21.3533 3.33337 20 3.33337C18.6483 3.33337 17.3417 3.78004 14.73 4.67504L13.775 5.00004C8.76333 6.71671 6.25833 7.57504 5.63 8.47004ZM25.1 17.5C25.2093 17.3775 25.2934 17.2346 25.3475 17.0795C25.4016 16.9244 25.4247 16.7602 25.4153 16.5962C25.4059 16.4323 25.3644 16.2717 25.293 16.1238C25.2216 15.9759 25.1217 15.8435 24.9992 15.7342C24.8766 15.6249 24.7337 15.5408 24.5786 15.4867C24.4236 15.4326 24.2593 15.4095 24.0954 15.4189C23.9314 15.4283 23.7709 15.4698 23.623 15.5412C23.4751 15.6126 23.3427 15.7125 23.2333 15.835L18.215 21.4584L16.765 19.835C16.5434 19.5902 16.2339 19.4429 15.9041 19.4255C15.5743 19.4081 15.251 19.5219 15.0048 19.7421C14.7587 19.9623 14.6096 20.2709 14.5903 20.6006C14.571 20.9303 14.6829 21.2543 14.9017 21.5017L17.2817 24.1684C17.3989 24.2997 17.5426 24.4048 17.7033 24.4768C17.864 24.5487 18.0381 24.5859 18.2142 24.5859C18.3902 24.5859 18.5643 24.5487 18.725 24.4768C18.8857 24.4048 19.0294 24.2997 19.1467 24.1684L25.1 17.5Z" fill="#FFC700"/>
</svg>
